{"asset":{"generator":"3D Builder","version":"2.0"},"scene":0,"scenes":[{"nodes":[0,1,2,3,4,5]}],"nodes":[{"mesh":0,"matrix":[1,0,0,0,0,-1.1920928955078125E-7,-0.99999988079071045,0,0,0.99999988079071045,-1.1920928955078125E-7,0,-0.63864666223526,0.037176888436079025,-0.92706888914108276,1]},{"mesh":1,"matrix":[1,0,0,0,0,-1.1920928955078125E-7,-0.99999988079071045,0,0,0.99999988079071045,-1.1920928955078125E-7,0,-0.63864666223526,0.037176888436079025,-0.92706888914108276,1]},{"mesh":2,"matrix":[0.99999994039535522,0,0,0,0,-1.1920928244535389E-7,-0.99999982118606567,0,0,0.99999982118606567,-1.1920928244535389E-7,0,-0.63864666223526,0.037176884710788727,-0.92706888914108276,1]},{"mesh":3,"matrix":[0.99999994039535522,0,0,0,0,-1.1920928244535389E-7,-0.99999982118606567,0,0,0.99999982118606567,-1.1920928244535389E-7,0,-0.63864666223526,0.037176884710788727,-0.92706888914108276,1]},{"mesh":4,"matrix":[0.99999994039535522,0,0,0,0,-1.1920928244535389E-7,-0.99999982118606567,0,0,0.99999982118606567,-1.1920928244535389E-7,0,-0.63864666223526,0.037176884710788727,-0.92706888914108276,1]},{"mesh":5,"matrix":[0.99999994039535522,0,0,0,0,-1.1920928244535389E-7,-0.99999982118606567,0,0,0.99999982118606567,-1.1920928244535389E-7,0,-0.63864666223526,0.037176884710788727,-0.92706888914108276,1]}],"meshes":[{"primitives":[{"attributes":{"POSITION":0},"mode":4,"indices":3,"material":0},{"attributes":{"POSITION":1,"COLOR_0":2},"mode":4,"indices":4}]},{"primitives":[{"attributes":{"POSITION":5},"mode":4,"indices":6,"material":1}]},{"primitives":[{"attributes":{"POSITION":7},"mode":4,"indices":8,"material":2}]},{"primitives":[{"attributes":{"POSITION":9},"mode":4,"indices":10,"material":2}]},{"primitives":[{"attributes":{"POSITION":11},"mode":4,"indices":12,"material":2}]},{"primitives":[{"attributes":{"POSITION":13},"mode":4,"indices":14,"material":2}]}],"materials":[{"name":"duke_w0286x_subdGeo_SG","pbrMetallicRoughness":{"baseColorFactor":[0,0,0,1],"metallicFactor":0,"roughnessFactor":0.98199999332427979}},{"name":"duke_w0286x_subdGeo_phong2SG","pbrMetallicRoughness":{"baseColorFactor":[1,0.24999998509883881,0.24999998509883881,1],"metallicFactor":0,"roughnessFactor":0.98199999332427979}},{"name":"duke_w0286x_subdGeo_lambert2SG","pbrMetallicRoughness":{"baseColorFactor":[0,0,0,1],"metallicFactor":0,"roughnessFactor":0.98199999332427979}}],"accessors":[{"bufferView":0,"byteOffset":0,"count":404,"componentType":5126,"type":"VEC3","min":[-5.5343279838562012,-2.7647778987884521,0.010829994454979897],"max":[5.7475647926330566,3.3967514038085937,17.476179122924805]},{"bufferView":0,"byteOffset":4848,"count":1363,"componentType":5126,"type":"VEC3","min":[-5.7635498046875,-3.7684662342071533,-0.037177003920078278],"max":[5.8677811622619629,3.9972858428955078,12.991955757141113]},{"bufferView":1,"byteOffset":0,"count":1363,"componentType":5121,"type":"VEC4","normalized":true},{"bufferView":2,"byteOffset":0,"count":2043,"componentType":5125,"type":"SCALAR"},{"bufferView":2,"byteOffset":8172,"count":7893,"componentType":5125,"type":"SCALAR"},{"bufferView":3,"byteOffset":0,"count":962,"componentType":5126,"type":"VEC3","min":[-3.4006989002227783,-5.8514237403869629,9.4307794570922852],"max":[0.8875499963760376,-1.565068244934082,13.711274147033691]},{"bufferView":4,"byteOffset":0,"count":5760,"componentType":5125,"type":"SCALAR"},{"bufferView":5,"byteOffset":0,"count":899,"componentType":5126,"type":"VEC3","min":[2.063481330871582,-0.026481285691261292,10.091230392456055],"max":[6.4094023704528809,2.0251450538635254,15.026524543762207]},{"bufferView":6,"byteOffset":0,"count":5382,"componentType":5125,"type":"SCALAR"},{"bufferView":7,"byteOffset":0,"count":908,"componentType":5126,"type":"VEC3","min":[-7.0466837882995605,-0.5246010422706604,4.7660751342773437],"max":[-4.1814613342285156,2.0130226612091064,9.7805957794189453]},{"bufferView":8,"byteOffset":0,"count":5436,"componentType":5125,"type":"SCALAR"},{"bufferView":9,"byteOffset":0,"count":2058,"componentType":5126,"type":"VEC3","min":[3.6781058311462402,0.90401893854141235,14.61165714263916],"max":[8.3239545822143555,2.6035170555114746,18.819681167602539]},{"bufferView":10,"byteOffset":0,"count":12348,"componentType":5125,"type":"SCALAR"},{"bufferView":11,"byteOffset":0,"count":2093,"componentType":5126,"type":"VEC3","min":[-6.5763635635375977,-2.5585744380950928,1.0446417331695557],"max":[-4.512333869934082,1.1749539375305176,5.1678361892700195]},{"bufferView":12,"byteOffset":0,"count":12570,"componentType":5125,"type":"SCALAR"}],"bufferViews":[{"buffer":0,"byteOffset":0,"byteLength":21204,"byteStride":12,"target":34962},{"buffer":0,"byteOffset":21204,"byteLength":5452,"byteStride":4,"target":34962},{"buffer":0,"byteOffset":26656,"byteLength":39744,"target":34963},{"buffer":0,"byteOffset":66400,"byteLength":11544,"byteStride":12,"target":34962},{"buffer":0,"byteOffset":77944,"byteLength":23040,"target":34963},{"buffer":0,"byteOffset":100984,"byteLength":10788,"byteStride":12,"target":34962},{"buffer":0,"byteOffset":111772,"byteLength":21528,"target":34963},{"buffer":0,"byteOffset":133300,"byteLength":10896,"byteStride":12,"target":34962},{"buffer":0,"byteOffset":144196,"byteLength":21744,"target":34963},{"buffer":0,"byteOffset":165940,"byteLength":24696,"byteStride":12,"target":34962},{"buffer":0,"byteOffset":190636,"byteLength":49392,"target":34963},{"buffer":0,"byteOffset":240028,"byteLength":25116,"byteStride":12,"target":34962},{"buffer":0,"byteOffset":265144,"byteLength":50280,"target":34963}],"buffers":[{"byteLength":315424,"uri":"Duke_wave_colored.bin"}]}